<svg width="700" height="659" viewBox="0 0 700 659" fill="none" xmlns="http://www.w3.org/2000/svg">
<path opacity="0.44" d="M305.056 387.552L238.093 659H430.452L406.172 381.574C451.365 402.623 497.227 533.762 514.51 596.701C572.702 562.652 616.14 509.257 630.585 486.816C592.203 413.766 488.715 320.183 441.769 282.523C523.486 288.708 643.482 370.222 693.266 410.206C705.028 373.062 698.167 309.607 693.266 282.523C600.405 232.379 486.909 213.136 441.769 209.783C491.294 183.782 620.267 176.766 678.563 176.508C648.228 130.077 588.024 92.1595 561.714 79.0043C489.902 80.2424 421.907 139.364 396.887 168.769C390.696 93.8619 420.617 40.0586 436.352 22.5203C357.73 -16.4789 291.645 6.27064 268.43 22.5203C300.002 48.5212 306.002 122.603 305.056 156.394C252.021 107.488 179.093 79.2666 149.259 71.2694L23.1238 180.382C140.747 169.239 235.671 206.179 268.43 226.042C160.712 216.137 60.01 254.415 23.1238 274.792C-6.59148 308.222 -0.091346 384.161 6.87314 417.952C108.4 325.091 223.547 297.747 268.43 295.683C175.569 354.494 104.891 439.358 81.1598 474.439C87.9695 515.297 163.445 577.617 200.331 603.669C205.903 528.762 272.469 428.38 305.056 387.552Z" fill="#9C74B8" fill-opacity="0.27"/>
</svg>
