<svg width="365" height="227" viewBox="0 0 365 227" fill="none" xmlns="http://www.w3.org/2000/svg">
<path d="M138 98.7917L137.784 97.8154L138 98.7917ZM363.879 226.792L364.84 215.285L354.395 220.206L363.879 226.792ZM0.87984 0.764361C0.86163 1.42903 0.848195 2.09842 0.839692 2.77222L2.83953 2.79746C2.84791 2.13352 2.86115 1.47397 2.87909 0.819135L0.87984 0.764361ZM0.848452 6.82677C0.87105 8.16469 0.913355 9.51694 0.976515 10.8813L2.97438 10.7888C2.91213 9.44421 2.87044 8.11153 2.84817 6.79299L0.848452 6.82677ZM1.22361 14.9281C1.32487 16.2623 1.44651 17.6057 1.58956 18.9563L3.57843 18.7456C3.43751 17.4151 3.31766 16.0915 3.21788 14.7767L1.22361 14.9281ZM2.07703 22.9766C2.25911 24.3081 2.46261 25.6446 2.6885 26.9841L4.66065 26.6515C4.43828 25.3329 4.23791 24.017 4.05859 22.7056L2.07703 22.9766ZM3.42685 30.9731C3.69324 32.293 3.98216 33.6141 4.29454 34.9345L6.24082 34.4741C5.93364 33.1756 5.64943 31.8761 5.38732 30.5775L3.42685 30.9731ZM5.29464 38.8618C5.64993 40.1626 6.02898 41.4612 6.43268 42.7556L8.34198 42.1601C7.94552 40.8889 7.57313 39.6133 7.22398 38.3349L5.29464 38.8618ZM7.71268 46.6082C8.16259 47.8821 8.63762 49.1504 9.13866 50.4114L10.9973 49.6728C10.506 48.4364 10.04 47.1923 9.59854 45.9422L7.71268 46.6082ZM10.7128 54.1528C11.2621 55.3876 11.8379 56.6136 12.441 57.829L14.2325 56.94C13.6422 55.7502 13.0783 54.5497 12.5401 53.3399L10.7128 54.1528ZM14.3267 61.4303C14.9808 62.6152 15.6627 63.7881 16.3733 64.9472L18.0784 63.902C17.3841 62.7692 16.7174 61.6226 16.0776 60.4637L14.3267 61.4303ZM18.5781 68.3618C19.3381 69.4799 20.127 70.5828 20.9455 71.6692L22.5428 70.4657C21.7442 69.4057 20.9743 68.3291 20.2322 67.2375L18.5781 68.3618ZM23.4759 74.8591C24.3432 75.8978 25.2401 76.9186 26.1675 77.9201L27.635 76.5612C26.7312 75.5852 25.8567 74.59 25.011 73.5772L23.4759 74.8591ZM29.0062 80.8305C29.9731 81.7714 30.9697 82.6922 31.9968 83.5916L33.3144 82.087C32.3139 81.2109 31.343 80.3138 30.4011 79.3972L29.0062 80.8305ZM35.1366 86.1975C36.195 87.0296 37.2829 87.84 38.4008 88.6273L39.5525 86.9922C38.4633 86.2251 37.4036 85.4357 36.3727 84.6252L35.1366 86.1975ZM41.7831 90.8798C42.9235 91.5972 44.0927 92.2918 45.2911 92.9623L46.2677 91.217C45.0991 90.5632 43.9595 89.8861 42.8481 89.1869L41.7831 90.8798ZM48.8919 94.8596C50.0903 95.4533 51.3157 96.024 52.5688 96.5708L53.3686 94.7377C52.1451 94.2038 50.949 93.6468 49.7798 93.0675L48.8919 94.8596ZM56.3504 98.1151C57.5972 98.5904 58.8693 99.043 60.1674 99.472L60.795 97.573C59.5252 97.1533 58.2813 96.7108 57.0629 96.2463L56.3504 98.1151ZM64.0481 100.661C65.3406 101.027 66.6572 101.371 67.9982 101.691L68.463 99.7462C67.1485 99.4322 65.8587 99.0956 64.5931 98.7371L64.0481 100.661ZM71.9359 102.551C73.2574 102.813 74.6014 103.053 75.9682 103.271L76.2829 101.296C74.9406 101.082 73.6212 100.846 72.3246 100.589L71.9359 102.551ZM79.943 103.833C81.276 103.998 82.6296 104.142 84.0042 104.265L84.183 102.273C82.8305 102.152 81.4991 102.01 80.1887 101.848L79.943 103.833ZM88.0125 104.562C89.3525 104.64 90.7115 104.699 92.0897 104.738L92.1463 102.739C90.7878 102.7 89.4488 102.642 88.129 102.565L88.0125 104.562ZM96.1028 104.795C97.4486 104.796 98.8119 104.778 100.193 104.742L100.14 102.742C98.7768 102.778 97.4313 102.796 96.1037 102.795L96.1028 104.795ZM104.187 104.586C105.534 104.517 106.898 104.431 108.279 104.327L108.128 102.332C106.764 102.435 105.416 102.521 104.085 102.589L104.187 104.586ZM112.25 103.983C113.583 103.853 114.931 103.706 116.294 103.544L116.057 101.558C114.708 101.719 113.375 101.864 112.056 101.992L112.25 103.983ZM120.289 103.026C121.602 102.843 122.93 102.644 124.27 102.431L123.956 100.456C122.628 100.667 121.313 100.864 120.012 101.045L120.289 103.026ZM128.306 101.75C129.596 101.52 130.899 101.277 132.214 101.02L131.83 99.057C130.526 99.3121 129.234 99.5534 127.955 99.7812L128.306 101.75ZM136.197 100.206C136.867 100.064 137.54 99.9177 138.216 99.7681L137.784 97.8154C137.113 97.9638 136.445 98.1087 135.781 98.2502L136.197 100.206ZM138.216 99.7681C138.874 99.6225 139.531 99.4808 140.187 99.343L139.776 97.3858C139.113 97.525 138.449 97.6682 137.784 97.8154L138.216 99.7681ZM144.109 98.5624C145.411 98.3176 146.709 98.088 148.003 97.8735L147.676 95.9004C146.368 96.1173 145.056 96.3494 143.739 96.5969L144.109 98.5624ZM151.952 97.2629C153.274 97.0734 154.591 96.8996 155.903 96.7412L155.663 94.7556C154.336 94.9158 153.005 95.0916 151.668 95.2832L151.952 97.2629ZM159.827 96.3117C161.164 96.1805 162.496 96.0652 163.822 95.9657L163.673 93.9713C162.331 94.072 160.984 94.1885 159.632 94.3212L159.827 96.3117ZM167.786 95.7138C169.115 95.6447 170.438 95.5913 171.755 95.5534L171.698 93.5542C170.365 93.5926 169.026 93.6466 167.682 93.7165L167.786 95.7138ZM175.747 95.4851C177.072 95.478 178.392 95.4865 179.706 95.5102L179.742 93.5105C178.412 93.4865 177.077 93.478 175.737 93.4851L175.747 95.4851ZM183.698 95.6296C185.028 95.6852 186.351 95.7564 187.669 95.8428L187.8 93.8471C186.467 93.7596 185.127 93.6876 183.782 93.6314L183.698 95.6296ZM191.627 96.1495C192.957 96.2684 194.28 96.4029 195.597 96.5524L195.823 94.5652C194.49 94.4138 193.151 94.2778 191.805 94.1575L191.627 96.1495ZM199.53 97.0463C200.852 97.2282 202.167 97.4253 203.476 97.6373L203.796 95.6631C202.471 95.4485 201.14 95.2491 199.803 95.065L199.53 97.0463ZM207.393 98.3194C208.7 98.5628 210 98.8209 211.293 99.0934L211.705 97.1364C210.397 96.8607 209.082 96.5995 207.76 96.3532L207.393 98.3194ZM215.183 99.961C216.472 100.265 217.756 100.582 219.032 100.914L219.535 98.9786C218.244 98.643 216.946 98.3214 215.641 98.0142L215.183 99.961ZM222.884 101.963C224.161 102.327 225.431 102.704 226.693 103.095L227.285 101.185C226.008 100.789 224.723 100.408 223.432 100.04L222.884 101.963ZM230.484 104.316C231.745 104.738 232.999 105.173 234.245 105.621L234.922 103.739C233.662 103.286 232.394 102.846 231.119 102.419L230.484 104.316ZM237.972 107.008C239.214 107.486 240.449 107.976 241.677 108.479L242.435 106.629C241.194 106.12 239.946 105.624 238.69 105.141L237.972 107.008ZM245.336 110.026C246.558 110.557 247.771 111.101 248.977 111.656L249.814 109.839C248.595 109.278 247.369 108.729 246.134 108.192L245.336 110.026ZM252.573 113.358C253.77 113.939 254.958 114.532 256.139 115.136L257.05 113.356C255.857 112.746 254.656 112.147 253.447 111.559L252.573 113.358ZM259.666 116.986C260.836 117.615 261.999 118.255 263.153 118.905L264.135 117.163C262.969 116.506 261.795 115.86 260.612 115.224L259.666 116.986ZM266.608 120.896C267.752 121.569 268.887 122.253 270.015 122.947L271.063 121.244C269.925 120.543 268.778 119.853 267.623 119.172L266.608 120.896ZM273.394 125.071C274.512 125.788 275.622 126.515 276.723 127.25L277.834 125.587C276.723 124.845 275.603 124.111 274.474 123.387L273.394 125.071ZM280.021 129.497C281.113 130.255 282.196 131.023 283.271 131.798L284.441 130.176C283.357 129.394 282.264 128.62 281.162 127.854L280.021 129.497ZM286.483 134.159C287.549 134.957 288.606 135.763 289.654 136.576L290.88 134.996C289.823 134.176 288.757 133.363 287.682 132.558L286.483 134.159ZM292.78 139.044C293.819 139.879 294.849 140.721 295.87 141.57L297.149 140.032C296.119 139.176 295.081 138.327 294.033 137.485L292.78 139.044ZM298.908 144.138C299.921 145.009 300.924 145.885 301.918 146.768L303.246 145.272C302.244 144.383 301.233 143.499 300.212 142.622L298.908 144.138ZM304.869 149.432C305.854 150.335 306.83 151.244 307.795 152.158L309.17 150.706C308.197 149.785 307.214 148.869 306.221 147.958L304.869 149.432ZM310.663 154.916C311.619 155.85 312.565 156.788 313.501 157.73L314.92 156.321C313.977 155.371 313.024 154.426 312.06 153.485L310.663 154.916ZM316.285 160.577C317.212 161.539 318.128 162.505 319.034 163.474L320.495 162.109C319.583 161.132 318.659 160.159 317.725 159.189L316.285 160.577ZM321.733 166.406C322.631 167.395 323.517 168.388 324.393 169.382L325.894 168.06C325.012 167.059 324.119 166.059 323.214 165.062L321.733 166.406ZM327.005 172.394C327.874 173.41 328.73 174.427 329.575 175.446L331.114 174.169C330.263 173.143 329.401 172.118 328.526 171.094L327.005 172.394ZM332.099 178.534C332.938 179.576 333.764 180.618 334.578 181.66L336.154 180.429C335.334 179.379 334.502 178.33 333.657 177.28L332.099 178.534ZM337.01 184.821C337.819 185.888 338.615 186.955 339.397 188.019L341.009 186.835C340.22 185.762 339.419 184.688 338.604 183.613L337.01 184.821ZM341.732 191.247C342.511 192.341 343.276 193.432 344.026 194.519L345.672 193.384C344.917 192.288 344.146 191.189 343.362 190.087L341.732 191.247ZM346.258 197.809C347.006 198.93 347.739 200.046 348.455 201.157L350.136 200.073C349.414 198.953 348.676 197.828 347.922 196.699L346.258 197.809ZM350.575 204.5C351.292 205.65 351.99 206.793 352.672 207.928L354.386 206.898C353.699 205.754 352.995 204.602 352.273 203.443L350.575 204.5ZM354.685 211.347C355.36 212.517 356.017 213.677 356.653 214.826L358.403 213.857C357.76 212.697 357.098 211.527 356.417 210.347L354.685 211.347ZM358.555 218.336C359.181 219.518 359.786 220.687 360.368 221.841L362.154 220.94C361.565 219.774 360.955 218.593 360.322 217.4L358.555 218.336Z" fill="white" fill-opacity="0.55"/>
</svg>
