<svg width="40" height="40" viewBox="0 0 40 40" fill="none" xmlns="http://www.w3.org/2000/svg">
<g clip-path="url(#clip0_1_1290)">
<path d="M32.5609 0H7.43906C3.33258 0.00476563 0.00476563 3.33258 0 7.43906V32.5609C0.00476563 36.6674 3.33258 39.9952 7.43906 40H32.5609C36.6674 39.9952 39.9952 36.6674 40 32.5609V7.43906C39.9952 3.33258 36.6674 0.00476563 32.5609 0ZM37.2387 7.43906V9.85086H30.2434L25.0117 2.76133H32.561C35.1432 2.76422 37.2358 4.8568 37.2387 7.43906ZM21.5798 2.76133L26.8116 9.85086H18.4202L13.1884 2.76133H21.5798ZM2.76133 7.43906C2.76422 4.85688 4.8568 2.7643 7.43906 2.76133H9.75664L14.9884 9.85086H2.76133V7.43906ZM32.5609 37.2387H7.43906C4.85688 37.2358 2.7643 35.1432 2.76133 32.5609V12.6123H37.2387V32.5609C37.2357 35.1431 35.1431 37.2357 32.5609 37.2387Z" fill="#1E326B"/>
<path d="M27.3663 23.7297L16.4433 17.4233C15.7829 17.042 14.9385 17.2683 14.5573 17.9287C14.4361 18.1386 14.3723 18.3767 14.3723 18.6191V31.232C14.3723 31.9945 14.9904 32.6127 15.7529 32.6127C15.9952 32.6127 16.2334 32.5489 16.4433 32.4277L27.3663 26.1212C28.0267 25.7399 28.253 24.8956 27.8717 24.2352C27.7505 24.0252 27.5762 23.8509 27.3663 23.7297ZM17.1336 28.8406V21.0104L23.9147 24.9254L17.1336 28.8406Z" fill="#1E326B"/>
</g>
<defs>
<clipPath id="clip0_1_1290">
<rect width="40" height="40" fill="white"/>
</clipPath>
</defs>
</svg>
