<svg width="307" height="154" viewBox="0 0 307 154" fill="none" xmlns="http://www.w3.org/2000/svg">
<path d="M306.984 0.308119C306.984 20.4639 303.014 40.4223 295.301 59.0439C287.587 77.6654 276.282 94.5853 262.029 108.838C247.777 123.09 230.857 134.395 212.236 142.109C193.614 149.822 173.656 153.792 153.5 153.792C133.344 153.792 113.386 149.822 94.7642 142.109C76.1427 134.395 59.2228 123.09 44.9705 108.838C30.7182 94.5853 19.4127 77.6654 11.6994 59.0438C3.98609 40.4223 0.0161115 20.4639 0.0161133 0.308105L53.9681 0.30811C53.9681 13.3788 56.5425 26.3216 61.5445 38.3973C66.5464 50.4731 73.8779 61.4454 83.1203 70.6878C92.3627 79.9302 103.335 87.2617 115.411 92.2636C127.487 97.2656 140.429 99.84 153.5 99.84C166.571 99.84 179.513 97.2656 191.589 92.2636C203.665 87.2617 214.637 79.9302 223.88 70.6878C233.122 61.4454 240.454 50.4731 245.456 38.3973C250.457 26.3216 253.032 13.3788 253.032 0.308119H306.984Z" fill="#FFF2DB"/>
</svg>
