<svg width="21" height="24" viewBox="0 0 21 24" fill="none" xmlns="http://www.w3.org/2000/svg">
<path d="M20.8903 21.2651C20.2309 19.3507 19.4101 16.9219 16.2226 16.9219H14.4966C15.012 16.5166 15.4795 16.0556 15.8481 15.5156H16.2226C18.1946 15.5156 19.7992 13.9384 19.7992 12C19.7992 10.9822 19.7992 10.2052 19.7992 9.1875C19.7992 4.1475 15.6275 0 10.5001 0C5.25589 0 1.1302 4.28503 1.20173 9.30628C1.20087 10.8547 1.20102 10.2917 1.20102 12C1.20102 13.9384 2.80556 15.5156 4.77758 15.5156H5.15207C5.52065 16.0556 5.98823 16.5166 6.50359 16.9219H4.77758C1.5901 16.9219 0.7693 19.3507 0.109876 21.2644C-0.356413 22.6171 0.724331 24 2.16364 24H18.8366C20.2808 24 21.3551 22.6121 20.8903 21.2651ZM4.13456 8.48438H3.34696C3.11739 8.48438 2.90031 8.52933 2.69278 8.59528C3.02154 4.36561 6.54884 1.40625 10.5001 1.40625C14.6387 1.40625 18.0334 4.61194 18.3385 8.6047C18.122 8.53233 17.8942 8.48438 17.6532 8.48438H16.8656C16.5045 5.32898 13.8052 2.8125 10.5001 2.8125C7.19501 2.8125 4.4957 5.32898 4.13456 8.48438ZM10.5001 22.1248L7.63855 18.3281H13.3616L10.5001 22.1248ZM10.5001 16.9219C7.73941 16.9219 5.4929 14.7136 5.4929 12V11.2969H7.63884C8.81291 11.2969 9.84763 10.7304 10.5001 9.86892C11.1526 10.7304 12.1873 11.2969 13.3613 11.2969H15.5073V12C15.5073 12.7577 15.3176 13.4675 15.005 14.1094H11.9307C11.5353 14.1094 11.2154 14.4239 11.2154 14.8125C11.2154 15.2011 11.5353 15.5109 11.9307 15.5109H13.9933C13.0901 16.3781 11.8591 16.9219 10.5001 16.9219Z" fill="#60B7DB"/>
</svg>
