<svg width="20" height="25" viewBox="0 0 20 25" fill="none" xmlns="http://www.w3.org/2000/svg">
<path d="M19.1304 4.31061C15.6674 4.31061 12.2148 2.70244 10.7335 0.399021C10.6549 0.276732 10.5465 0.176057 10.4183 0.106311C10.2901 0.0365644 10.1462 0 10 0C9.85376 0 9.70988 0.0365644 9.58167 0.106311C9.45346 0.176057 9.34507 0.276732 9.26652 0.399021C7.78522 2.70244 4.33217 4.31061 0.869565 4.31061C0.638942 4.31061 0.417765 4.40143 0.25469 4.5631C0.0916148 4.72477 0 4.94404 0 5.17267V13.7932C0 19.7656 5.8413 23.9957 9.78913 24.9741C9.92756 25.0086 10.0724 25.0086 10.2109 24.9741C14.1587 23.9957 20 19.7656 20 13.7932V5.17267C20 4.94404 19.9084 4.72477 19.7453 4.5631C19.5822 4.40143 19.3611 4.31061 19.1304 4.31061ZM10 18.5346C8.79611 18.5346 7.61926 18.1807 6.61827 17.5176C5.61727 16.8545 4.83709 15.9121 4.37639 14.8094C3.91568 13.7068 3.79514 12.4935 4.03 11.3229C4.26487 10.1523 4.8446 9.07712 5.69587 8.23319C6.54715 7.38926 7.63174 6.81454 8.81249 6.5817C9.99325 6.34887 11.2171 6.46837 12.3294 6.9251C13.4416 7.38183 14.3923 8.15527 15.0611 9.14762C15.73 10.14 16.087 11.3067 16.087 12.5002C16.087 14.1006 15.4457 15.6355 14.3041 16.7671C13.1626 17.8988 11.6144 18.5346 10 18.5346ZM13.2235 9.30451C13.3865 9.46617 13.4781 9.6854 13.4781 9.91399C13.4781 10.1426 13.3865 10.3618 13.2235 10.5235L8.00609 15.6958C7.84305 15.8575 7.62191 15.9483 7.3913 15.9484C7.34472 15.9482 7.29822 15.9446 7.25217 15.9376C7.11612 15.9158 6.98725 15.8621 6.8762 15.7812C6.76516 15.7003 6.67511 15.5943 6.61348 15.4721L5.74391 13.748C5.64071 13.5435 5.62368 13.3067 5.69658 13.0897C5.76947 12.8728 5.92632 12.6934 6.13261 12.5911C6.3389 12.4888 6.57774 12.4719 6.79659 12.5442C7.01543 12.6164 7.19636 12.7719 7.29956 12.9764L7.62957 13.6312L11.9939 9.30451C12.157 9.1429 12.3781 9.05211 12.6087 9.05211C12.8393 9.05211 13.0604 9.1429 13.2235 9.30451Z" fill="#60B7DB"/>
</svg>
