<svg width="61" height="60" viewBox="0 0 61 60" fill="none" xmlns="http://www.w3.org/2000/svg">
<path d="M8.89577 32.8268C9.19796 33.1277 9.5579 33.3666 9.9547 33.5296C10.3515 33.6927 10.7773 33.7767 11.2073 33.7767C11.6374 33.7767 12.0631 33.6927 12.4599 33.5296C12.8568 33.3666 13.2167 33.1277 13.5189 32.8268C14.7562 31.5515 18.7569 28.7957 20.2709 28.3431V54.301C20.2585 55.1613 20.5931 55.9914 21.2017 56.6096C21.8103 57.2277 22.6431 57.5836 23.5179 57.5993H24.4766C25.3515 57.5836 26.1845 57.2278 26.7932 56.6096C27.4019 55.9915 27.7368 55.1614 27.7245 54.301V43.7119C27.7119 43.3375 27.8503 42.9734 28.1094 42.6988C28.3685 42.4243 28.7275 42.2615 29.1081 42.246H31.9852C32.3658 42.2615 32.7248 42.4243 32.9839 42.6988C33.2431 42.9734 33.3814 43.3375 33.3688 43.7119V54.301C33.3566 55.1614 33.6915 55.9915 34.3002 56.6096C34.9089 57.2278 35.7418 57.5836 36.6167 57.5993H37.5754C38.4502 57.5836 39.2831 57.2277 39.8917 56.6096C40.5002 55.9914 40.8349 55.1613 40.8224 54.301V28.3431C42.3364 28.7938 46.3372 31.5497 47.5745 32.8268C47.8767 33.1277 48.2366 33.3666 48.6334 33.5296C49.0302 33.6927 49.456 33.7767 49.886 33.7767C50.3161 33.7767 50.7418 33.6927 51.1386 33.5296C51.5355 33.3666 51.8954 33.1277 52.1976 32.8268L52.6504 32.3605C53.2484 31.7314 53.5811 30.9024 53.5811 30.0412C53.5811 29.18 53.2484 28.351 52.6504 27.7219L51.5584 26.5978C48.168 23.1053 41.9134 17.6431 34.7486 15.971C36.0642 15.0881 37.0575 13.814 37.583 12.3354C38.1085 10.8569 38.1385 9.25169 37.6686 7.75517C37.1987 6.25864 36.2537 4.94948 34.972 4.01959C33.6903 3.08969 32.1394 2.58797 30.5467 2.58797C28.9539 2.58797 27.403 3.08969 26.1213 4.01959C24.8397 4.94948 23.8946 6.25864 23.4248 7.75517C22.9549 9.25169 22.9849 10.8569 23.5104 12.3354C24.0358 13.814 25.0292 15.0881 26.3447 15.971C19.179 17.6431 12.9282 23.1053 9.53492 26.5987L8.44296 27.7219C7.8449 28.351 7.51221 29.18 7.51221 30.0412C7.51221 30.9024 7.8449 31.7314 8.44296 32.3605L8.89577 32.8268ZM24.9565 9.93438C24.9519 8.84718 25.2752 7.78305 25.8857 6.87657C26.4961 5.97008 27.3662 5.26195 28.3859 4.84171C29.4056 4.42148 30.5291 4.30802 31.6144 4.51568C32.6997 4.72334 33.6979 5.2428 34.483 6.00836C35.2681 6.77392 35.8046 7.75121 36.0248 8.81663C36.2451 9.88206 36.139 10.9878 35.7202 11.9939C35.3013 13.0001 34.5885 13.8616 33.6718 14.4694C32.755 15.0772 31.6756 15.404 30.57 15.4085H30.5234C29.0475 15.4068 27.6325 14.8295 26.5889 13.8033C25.5453 12.7771 24.9582 11.3857 24.9565 9.93438ZM9.79207 28.9871L10.8877 27.863C14.717 23.9134 22.3701 17.2876 30.5467 17.2876C38.7233 17.2876 46.3763 23.9134 50.2056 27.863L51.2976 28.9871C51.5696 29.2727 51.7211 29.6494 51.7211 30.0407C51.7211 30.4321 51.5696 30.8088 51.2976 31.0943L50.8457 31.5607C50.7207 31.6876 50.5711 31.7886 50.4057 31.8576C50.2403 31.9265 50.0624 31.9621 49.8828 31.9621C49.7031 31.9621 49.5252 31.9265 49.3598 31.8576C49.1944 31.7886 49.0448 31.6876 48.9198 31.5607C48.1922 30.8112 41.9507 25.7201 39.818 26.5593C39.5523 26.6659 39.3266 26.8509 39.1722 27.0888C39.0177 27.3267 38.9419 27.6058 38.9553 27.8877V54.301C38.9682 54.6749 38.8304 55.0386 38.572 55.3131C38.3136 55.5876 37.9555 55.7507 37.5754 55.7669H36.6167C36.2359 55.7519 35.8765 55.5893 35.6171 55.3147C35.3577 55.04 35.2193 54.6756 35.2322 54.301V43.7119C35.2447 42.8516 34.91 42.0215 34.3014 41.4034C33.6929 40.7852 32.86 40.4293 31.9852 40.4137H29.1081C28.2333 40.4293 27.4005 40.7852 26.7919 41.4034C26.1834 42.0215 25.8487 42.8516 25.8611 43.7119V54.301C25.874 54.6756 25.7356 55.04 25.4762 55.3147C25.2168 55.5893 24.8575 55.7519 24.4766 55.7669H23.5179C23.1372 55.7516 22.7781 55.589 22.5189 55.3144C22.2597 55.0397 22.1215 54.6755 22.1343 54.301V27.8886C22.1477 27.6067 22.072 27.3276 21.9175 27.0897C21.763 26.8518 21.5373 26.6668 21.2716 26.5602C19.1408 25.721 12.8974 30.8122 12.1698 31.5616C12.0448 31.6886 11.8952 31.7895 11.7298 31.8585C11.5644 31.9275 11.3865 31.963 11.2069 31.963C11.0272 31.963 10.8493 31.9275 10.6839 31.8585C10.5185 31.7895 10.3689 31.6886 10.2439 31.5616L9.79207 31.0953C9.5197 30.8096 9.36812 30.4328 9.36812 30.0412C9.36812 29.6496 9.5197 29.2728 9.79207 28.9871Z" fill="white"/>
<path d="M30.5466 37.4434C32.5228 37.4412 34.4173 36.6683 35.8147 35.2943C37.212 33.9202 37.998 32.0572 38.0003 30.114C38.0003 29.871 37.9021 29.638 37.7274 29.4662C37.5526 29.2944 37.3157 29.1979 37.0686 29.1979C36.8214 29.1979 36.5845 29.2944 36.4097 29.4662C36.235 29.638 36.1368 29.871 36.1368 30.114C36.1407 31.3082 35.7502 32.4713 35.0241 33.4285C34.298 34.3857 33.2755 35.0853 32.1104 35.4221C30.9453 35.7589 29.7005 35.7146 28.5631 35.296C27.4258 34.8774 26.4574 34.107 25.8034 33.1008C25.1495 32.0945 24.8455 30.9067 24.937 29.7159C25.0285 28.5251 25.5106 27.3957 26.3109 26.4975C27.1112 25.5993 28.1864 24.9808 29.3748 24.7351C30.5632 24.4893 31.8006 24.6295 32.901 25.1346L31.3498 25.6266C31.1383 25.6935 30.958 25.8325 30.8416 26.0185C30.7251 26.2045 30.68 26.4253 30.7146 26.6411C30.7491 26.8569 30.8609 27.0535 31.0298 27.1954C31.1987 27.3373 31.4136 27.4152 31.6358 27.415C31.733 27.4153 31.8296 27.4001 31.9218 27.3701L35.4679 26.2459C35.7031 26.1716 35.8987 26.0084 36.0116 25.7922C36.1244 25.5761 36.1454 25.3247 36.0698 25.0934L34.9256 21.6046C34.8936 21.4839 34.8368 21.371 34.7588 21.2726C34.6808 21.1743 34.5832 21.0927 34.472 21.0327C34.3608 20.9728 34.2383 20.9358 34.112 20.9241C33.9857 20.9123 33.8584 20.926 33.7377 20.9644C33.617 21.0027 33.5056 21.0649 33.4102 21.1471C33.3148 21.2293 33.2375 21.3297 33.1829 21.4424C33.1284 21.555 33.0979 21.6773 33.0931 21.8019C33.0884 21.9266 33.1096 22.0508 33.1554 22.1671L33.5654 23.426C32.5516 22.984 31.4503 22.7702 30.3419 22.8002C29.2334 22.8303 28.1458 23.1033 27.1583 23.5995C26.1709 24.0956 25.3086 24.8023 24.6344 25.668C23.9602 26.5338 23.4911 27.5366 23.2614 28.6033C23.0316 29.6701 23.0471 30.7738 23.3065 31.8339C23.566 32.8941 24.0629 33.8838 24.7611 34.731C25.4593 35.5781 26.341 36.2613 27.3419 36.7306C28.3429 37.1998 29.4377 37.4434 30.5466 37.4434Z" fill="white"/>
</svg>
