<svg width="55" height="55" viewBox="0 0 55 55" fill="none" xmlns="http://www.w3.org/2000/svg">
<path d="M27.786 6.86191C27.165 6.86191 26.6609 6.35785 26.6609 5.73678V1.23628C26.6609 0.615209 27.165 0.111153 27.786 0.111153C28.4071 0.111153 28.9112 0.615209 28.9112 1.23628V5.73678C28.9112 6.35785 28.4071 6.86191 27.786 6.86191Z" fill="white"/>
<path d="M42.9032 13.1221C42.6152 13.1221 42.3272 13.0119 42.1067 12.7936C41.6679 12.3548 41.6679 11.6414 42.1067 11.2026L45.2885 8.02079C45.7273 7.58199 46.4406 7.58199 46.8794 8.02079C47.3182 8.45959 47.3182 9.17292 46.8794 9.61172L43.6976 12.7936C43.4793 13.0119 43.1913 13.1221 42.9032 13.1221Z" fill="white"/>
<path d="M53.664 28.2393H49.1634C48.5424 28.2393 48.0383 27.7353 48.0383 27.1142C48.0383 26.4931 48.5424 25.9891 49.1634 25.9891H53.664C54.285 25.9891 54.7891 26.4931 54.7891 27.1142C54.7891 27.7353 54.285 28.2393 53.664 28.2393Z" fill="white"/>
<path d="M46.0851 46.5384C45.7971 46.5384 45.509 46.4281 45.2885 46.2098L42.1067 43.028C41.6679 42.5892 41.6679 41.8758 42.1067 41.437C42.5455 40.9982 43.2588 40.9982 43.6976 41.437L46.8794 44.6189C47.3182 45.0577 47.3182 45.771 46.8794 46.2098C46.6612 46.4281 46.3731 46.5384 46.0851 46.5384Z" fill="white"/>
<path d="M27.786 54.1172C27.165 54.1172 26.6609 53.6132 26.6609 52.9921V48.4916C26.6609 47.8705 27.165 47.3665 27.786 47.3665C28.4071 47.3665 28.9112 47.8705 28.9112 48.4916V52.9921C28.9112 53.6132 28.4071 54.1172 27.786 54.1172Z" fill="white"/>
<path d="M9.487 46.5384C9.19897 46.5384 8.91093 46.4281 8.69041 46.2098C8.25161 45.771 8.25161 45.0577 8.69041 44.6189L11.8723 41.437C12.3111 40.9982 13.0244 40.9982 13.4632 41.437C13.902 41.8758 13.902 42.5892 13.4632 43.028L10.2813 46.2098C10.0631 46.4281 9.77503 46.5384 9.487 46.5384Z" fill="white"/>
<path d="M6.40865 28.2393H1.90815C1.28708 28.2393 0.78302 27.7353 0.78302 27.1142C0.78302 26.4931 1.28708 25.9891 1.90815 25.9891H6.40865C7.02972 25.9891 7.53378 26.4931 7.53378 27.1142C7.53378 27.7353 7.02972 28.2393 6.40865 28.2393Z" fill="white"/>
<path d="M12.6689 13.1221C12.3808 13.1221 12.0928 13.0119 11.8723 12.7936L8.69266 9.61172C8.25386 9.17292 8.25386 8.45959 8.69266 8.02079C9.13146 7.58199 9.84479 7.58199 10.2836 8.02079L13.4654 11.2026C13.9042 11.6414 13.9042 12.3548 13.4654 12.7936C13.2449 13.0119 12.9569 13.1221 12.6689 13.1221Z" fill="white"/>
<path d="M24.5749 45.1162C24.4422 45.1162 24.3117 45.0937 24.1811 45.0464C23.6883 44.8619 23.3891 44.3624 23.4588 43.8448L25.3783 29.3644H17.6599C17.2346 29.3644 16.8453 29.1237 16.6541 28.7434C16.4628 28.3631 16.5033 27.9063 16.7598 27.5642L30.2613 9.56221C30.5741 9.14367 31.1299 8.99515 31.6047 9.20217C32.0818 9.40695 32.3586 9.90875 32.2731 10.4218L30.2388 22.6137H37.9122C38.3262 22.6137 38.7065 22.841 38.9023 23.2055C39.0981 23.57 39.0778 24.0111 38.8528 24.3599L25.5155 44.6121C25.3018 44.9339 24.944 45.1162 24.5749 45.1162ZM19.9102 27.1142H26.6609C26.9872 27.1142 27.2932 27.2559 27.507 27.499C27.7208 27.7398 27.8198 28.066 27.777 28.3878L26.3346 39.2745L35.824 24.8639H28.9112C28.5804 24.8639 28.2676 24.7199 28.0516 24.4656C27.8378 24.2136 27.7455 23.8783 27.8018 23.5543L29.2937 14.6028L19.9102 27.1142Z" fill="white"/>
</svg>
