<svg width="51" height="52" viewBox="0 0 51 52" fill="none" xmlns="http://www.w3.org/2000/svg">
<g clip-path="url(#clip0_1_453)">
<mask id="mask0_1_453" style="mask-type:luminance" maskUnits="userSpaceOnUse" x="0" y="0" width="51" height="52">
<path d="M0.00585938 0.274815H50.6905V51.9532H0.00585938V0.274815Z" fill="white"/>
</mask>
<g mask="url(#mask0_1_453)">
<path d="M25.3482 39.5816V50.439H13.469V44.383L8.75915 39.5808C4.16862 34.9003 1.49075 28.5522 1.49075 21.9329V14.1026C4.7711 14.1026 7.43036 16.814 7.43036 20.1587C7.43036 26.7779 10.1082 30.098 14.6987 34.7785L16.4388 36.5527" stroke="white" stroke-width="1.6" stroke-miterlimit="10"/>
<path d="M10.1873 28.4415C13.4221 26.0352 18.0407 26.5393 20.7125 29.7645C25.2017 35.1836 25.3481 37.0734 25.3481 37.0734M25.3481 37.0734V50.4392M25.3481 37.0734C25.3481 37.0734 25.4945 35.1836 29.9838 29.7645C32.6554 26.5393 37.2743 26.0352 40.5091 28.4415" stroke="white" stroke-width="1.6" stroke-miterlimit="10"/>
<path d="M36.0044 34.7717L34.2576 36.5528L35.9975 34.7788C40.588 30.0983 43.266 26.7781 43.266 20.1589C43.266 16.8142 45.9252 14.1029 49.2056 14.1029V21.9332C49.2056 28.5523 46.5276 34.9005 41.9371 39.581L37.2274 44.3832V50.4393H25.3482" stroke="white" stroke-width="1.6" stroke-miterlimit="10"/>
<path d="M13.6981 8.99224C13.6981 4.95284 16.607 1.78885 20.3221 1.78885C22.6858 1.78885 24.3432 3.08404 25.4033 4.55072C26.443 3.16095 28.1034 1.78885 30.6019 1.78885C34.317 1.78885 37.2274 4.95284 37.2274 8.99224C37.2274 13.9619 32.9398 16.7723 25.3482 23.4744C17.4972 16.5804 13.6981 13.9013 13.6981 8.99224Z" stroke="white" stroke-width="1.6" stroke-miterlimit="10"/>
</g>
</g>
<defs>
<clipPath id="clip0_1_453">
<rect width="50.6846" height="51.6784" fill="white" transform="translate(0.00585938 0.274811)"/>
</clipPath>
</defs>
</svg>
