<svg width="47" height="51" viewBox="0 0 47 51" fill="none" xmlns="http://www.w3.org/2000/svg">
<path d="M46.1269 10.2039C46.0929 10.0302 46.0154 9.86806 45.9015 9.73265C45.7876 9.59723 45.6412 9.493 45.4759 9.42977C42.2523 8.19561 39.0631 6.89885 35.9949 5.56976C32.0337 3.86718 28.1142 2.05819 24.347 0.192865C24.1886 0.112472 24.0128 0.0724094 23.8352 0.076231C23.6576 0.0800526 23.4837 0.12764 23.3288 0.214774C19.5732 2.07071 15.6714 3.87448 11.7248 5.57497C8.65663 6.89885 5.46742 8.19561 2.24379 9.42977C2.07855 9.493 1.9321 9.59723 1.81822 9.73265C1.70434 9.86806 1.62677 10.0302 1.59281 10.2039C0.986682 13.319 -1.50042 29.458 9.16678 41.2926C13.0312 45.5386 18.0249 48.5963 23.5636 50.108C23.6597 50.1367 23.7595 50.1515 23.8599 50.1518C23.9745 50.1517 24.0884 50.1327 24.1968 50.0955C29.7184 48.58 34.6959 45.5273 38.5498 41.2926C49.2201 29.458 46.733 13.319 46.1269 10.2039ZM37.0048 39.8946C33.4683 43.7788 28.9147 46.5948 23.8599 48.0236C18.805 46.5948 14.2514 43.7788 10.715 39.8946C1.19742 29.3359 2.96781 14.5907 3.53846 11.1668C6.60248 9.98686 9.62998 8.75062 12.549 7.49142C16.3923 5.83578 20.1949 4.08313 23.8599 2.27518C27.5248 4.07896 31.3274 5.83161 35.1707 7.49142C38.0918 8.75166 41.1172 9.9879 44.1812 11.1678C44.7519 14.5907 46.5223 29.3359 37.0048 39.8946Z" fill="white"/>
<path d="M35.3356 23.0274C35.0589 23.0274 34.7935 23.1374 34.5979 23.333C34.4022 23.5286 34.2923 23.794 34.2923 24.0707H32.1338C31.9509 22.5868 31.3682 21.1804 30.448 20.002L31.9742 18.4758C32.0705 18.5754 32.1856 18.6549 32.3129 18.7095C32.4401 18.7642 32.577 18.793 32.7156 18.7942C32.8541 18.7954 32.9914 18.769 33.1197 18.7166C33.2479 18.6641 33.3644 18.5866 33.4623 18.4887C33.5603 18.3907 33.6377 18.2743 33.6902 18.146C33.7426 18.0178 33.769 17.8805 33.7678 17.7419C33.7666 17.6034 33.7378 17.4665 33.6832 17.3392C33.6285 17.212 33.549 17.0968 33.4494 17.0006L31.9742 15.5255C31.878 15.4258 31.7629 15.3463 31.6356 15.2917C31.5083 15.237 31.3714 15.2082 31.2329 15.207C31.0944 15.2058 30.957 15.2322 30.8288 15.2847C30.7006 15.3371 30.5841 15.4146 30.4861 15.5125C30.3882 15.6105 30.3107 15.727 30.2583 15.8552C30.2058 15.9834 30.1794 16.1208 30.1806 16.2593C30.1818 16.3978 30.2106 16.5347 30.2653 16.662C30.32 16.7893 30.3994 16.9044 30.4991 17.0006L28.9718 18.5258C27.7933 17.6056 26.387 17.0229 24.9031 16.8399V14.6815C25.1798 14.6815 25.4451 14.5716 25.6408 14.3759C25.8364 14.1803 25.9463 13.9149 25.9463 13.6382C25.9463 13.3615 25.8364 13.0962 25.6408 12.9005C25.4451 12.7049 25.1798 12.595 24.9031 12.595H22.8166C22.5399 12.595 22.2746 12.7049 22.0789 12.9005C21.8833 13.0962 21.7734 13.3615 21.7734 13.6382C21.7734 13.9149 21.8833 14.1803 22.0789 14.3759C22.2746 14.5716 22.5399 14.6815 22.8166 14.6815V16.8399C21.3327 17.0229 19.9264 17.6056 18.7479 18.5258L17.2217 16.9996C17.3213 16.9033 17.4008 16.7882 17.4555 16.6609C17.5101 16.5336 17.5389 16.3968 17.5401 16.2582C17.5413 16.1197 17.5149 15.9823 17.4625 15.8541C17.41 15.7259 17.3326 15.6094 17.2346 15.5115C17.1367 15.4135 17.0202 15.3361 16.892 15.2836C16.7638 15.2312 16.6264 15.2048 16.4879 15.206C16.3493 15.2072 16.2124 15.2359 16.0852 15.2906C15.9579 15.3453 15.8428 15.4248 15.7465 15.5244L14.2714 16.9996C14.1717 17.0958 14.0923 17.2109 14.0376 17.3382C13.9829 17.4655 13.9541 17.6024 13.9529 17.7409C13.9517 17.8794 13.9781 18.0168 14.0306 18.145C14.083 18.2732 14.1605 18.3897 14.2584 18.4876C14.3564 18.5856 14.4729 18.6631 14.6011 18.7155C14.7293 18.768 14.8667 18.7944 15.0052 18.7932C15.1437 18.792 15.2806 18.7632 15.4079 18.7085C15.5352 18.6538 15.6503 18.5744 15.7465 18.4747L17.2718 20.002C16.3515 21.1804 15.7688 22.5868 15.5859 24.0707H13.4274C13.4274 23.794 13.3175 23.5286 13.1218 23.333C12.9262 23.1374 12.6608 23.0274 12.3841 23.0274C12.1075 23.0274 11.8421 23.1374 11.6465 23.333C11.4508 23.5286 11.3409 23.794 11.3409 24.0707V26.1572C11.3409 26.4339 11.4508 26.6992 11.6465 26.8949C11.8421 27.0905 12.1075 27.2004 12.3841 27.2004C12.6608 27.2004 12.9262 27.0905 13.1218 26.8949C13.3175 26.6992 13.4274 26.4339 13.4274 26.1572H15.5859C15.7688 27.6411 16.3515 29.0474 17.2718 30.2258L15.7455 31.7521C15.6493 31.6525 15.5341 31.573 15.4069 31.5183C15.2796 31.4636 15.1427 31.4349 15.0042 31.4337C14.8656 31.4325 14.7283 31.4589 14.6001 31.5113C14.4718 31.5638 14.3554 31.6412 14.2574 31.7392C14.1595 31.8371 14.082 31.9536 14.0295 32.0818C13.9771 32.21 13.9507 32.3474 13.9519 32.4859C13.9531 32.6245 13.9819 32.7613 14.0365 32.8886C14.0912 33.0159 14.1707 33.131 14.2703 33.2273L15.7455 34.7024C15.8417 34.8021 15.9568 34.8815 16.0841 34.9362C16.2114 34.9909 16.3483 35.0197 16.4868 35.0209C16.6253 35.0221 16.7627 34.9957 16.8909 34.9432C17.0191 34.8908 17.1356 34.8133 17.2336 34.7153C17.3315 34.6174 17.409 34.5009 17.4614 34.3727C17.5139 34.2445 17.5403 34.1071 17.5391 33.9686C17.5379 33.8301 17.5091 33.6932 17.4544 33.5659C17.3998 33.4386 17.3203 33.3235 17.2206 33.2273L18.7479 31.702C19.9264 32.6223 21.3327 33.205 22.8166 33.3879V35.5464C22.5399 35.5464 22.2746 35.6563 22.0789 35.852C21.8833 36.0476 21.7734 36.313 21.7734 36.5896C21.7734 36.8663 21.8833 37.1317 22.0789 37.3273C22.2746 37.523 22.5399 37.6329 22.8166 37.6329H24.9031C25.1798 37.6329 25.4451 37.523 25.6408 37.3273C25.8364 37.1317 25.9463 36.8663 25.9463 36.5896C25.9463 36.313 25.8364 36.0476 25.6408 35.852C25.4451 35.6563 25.1798 35.5464 24.9031 35.5464V33.3879C26.387 33.205 27.7933 32.6223 28.9718 31.702L30.498 33.2283C30.3984 33.3245 30.3189 33.4397 30.2642 33.5669C30.2096 33.6942 30.1808 33.8311 30.1796 33.9696C30.1784 34.1082 30.2048 34.2455 30.2572 34.3737C30.3097 34.5019 30.3871 34.6184 30.4851 34.7164C30.5831 34.8143 30.6995 34.8918 30.8277 34.9443C30.956 34.9967 31.0933 35.0231 31.2319 35.0219C31.3704 35.0207 31.5073 34.9919 31.6345 34.9372C31.7618 34.8826 31.8769 34.8031 31.9732 34.7035L33.4483 33.2283C33.548 33.1321 33.6274 33.017 33.6821 32.8897C33.7368 32.7624 33.7656 32.6255 33.7668 32.487C33.768 32.3485 33.7416 32.2111 33.6891 32.0829C33.6367 31.9547 33.5592 31.8382 33.4613 31.7402C33.3633 31.6423 33.2468 31.5648 33.1186 31.5123C32.9904 31.4599 32.853 31.4335 32.7145 31.4347C32.576 31.4359 32.4391 31.4647 32.3118 31.5194C32.1845 31.574 32.0694 31.6535 31.9732 31.7532L30.448 30.2258C31.3682 29.0474 31.9509 27.6411 32.1338 26.1572H34.2923C34.2923 26.4339 34.4022 26.6992 34.5979 26.8949C34.7935 27.0905 35.0589 27.2004 35.3356 27.2004C35.6122 27.2004 35.8776 27.0905 36.0732 26.8949C36.2689 26.6992 36.3788 26.4339 36.3788 26.1572V24.0707C36.3788 23.794 36.2689 23.5286 36.0732 23.333C35.8776 23.1374 35.6122 23.0274 35.3356 23.0274ZM23.8599 31.3734C22.6218 31.3734 21.4116 31.0063 20.3823 30.3185C19.3529 29.6307 18.5506 28.6531 18.0769 27.5093C17.6031 26.3656 17.4791 25.107 17.7207 23.8928C17.9622 22.6786 18.5583 21.5632 19.4337 20.6878C20.3091 19.8124 21.4245 19.2163 22.6387 18.9747C23.8529 18.7332 25.1115 18.8572 26.2553 19.3309C27.399 19.8047 28.3766 20.607 29.0644 21.6364C29.7522 22.6657 30.1193 23.8759 30.1193 25.1139C30.1193 26.774 29.4599 28.3662 28.286 29.5401C27.1121 30.7139 25.52 31.3734 23.8599 31.3734Z" fill="white"/>
<path d="M22.8166 24.0707C23.3928 24.0707 23.8599 23.6036 23.8599 23.0274C23.8599 22.4513 23.3928 21.9842 22.8166 21.9842C22.2404 21.9842 21.7734 22.4513 21.7734 23.0274C21.7734 23.6036 22.2404 24.0707 22.8166 24.0707Z" fill="white"/>
<path d="M25.9463 25.1139C26.5225 25.1139 26.9896 24.6469 26.9896 24.0707C26.9896 23.4945 26.5225 23.0274 25.9463 23.0274C25.3702 23.0274 24.9031 23.4945 24.9031 24.0707C24.9031 24.6469 25.3702 25.1139 25.9463 25.1139Z" fill="white"/>
<path d="M21.7734 27.2004C22.3495 27.2004 22.8166 26.7333 22.8166 26.1572C22.8166 25.581 22.3495 25.1139 21.7734 25.1139C21.1972 25.1139 20.7301 25.581 20.7301 26.1572C20.7301 26.7333 21.1972 27.2004 21.7734 27.2004Z" fill="white"/>
<path d="M24.9031 28.2437C25.4793 28.2437 25.9463 27.7766 25.9463 27.2004C25.9463 26.6243 25.4793 26.1572 24.9031 26.1572C24.3269 26.1572 23.8599 26.6243 23.8599 27.2004C23.8599 27.7766 24.3269 28.2437 24.9031 28.2437Z" fill="white"/>
</svg>
