<svg width="242" height="236" viewBox="0 0 242 236" fill="none" xmlns="http://www.w3.org/2000/svg">
<path d="M43.0747 145.786L18.7156 131.539V103.094H13.892V134.369L40.6629 150.031L43.0747 145.786Z" fill="#FFB139" fill-opacity="0.07"/>
<path d="M97.6296 131.539V103.094H92.8061V134.369L119.577 150.031L121.989 145.786L97.6296 131.539Z" fill="#FFB139" fill-opacity="0.07"/>
<path d="M242 93.5803L202.109 70.3072V24.4441L160.24 0L120.783 23.0292L81.3259 0L39.4571 24.4441V70.5512L0 93.5803V142.468L39.4571 165.498V211.556L81.3259 236L120.783 212.971L160.24 236L202.109 211.556V165.742L242 142.468V93.5803ZM83.7377 139.639V96.4102L120.783 74.796L157.828 96.4102V139.639L120.783 161.253L83.7377 139.639ZM123.195 27.2739L160.24 5.65971L197.285 27.2739V70.5512L160.24 92.1654L123.195 70.5512V27.2739ZM44.2806 27.2739L81.3259 5.65971L118.371 27.2739V70.5512L81.3259 92.1654L44.2806 70.5512V27.2739ZM4.8236 96.4102L41.8688 74.796L78.9141 96.4102V139.639L41.8688 161.253L4.87184 139.639V96.3614L4.8236 96.4102ZM81.3259 230.389L44.2806 208.775V165.546L81.3259 143.932L118.371 165.546V208.775L81.3259 230.389ZM197.285 208.775L160.24 230.389L123.195 208.775V165.546L160.24 143.932L197.285 165.546V208.824V208.775ZM237.176 139.687L200.131 161.302L163.086 139.687V96.4102L200.131 74.796L237.176 96.4102V139.687Z" fill="#FFB139" fill-opacity="0.07"/>
<path d="M176.978 103.094H172.154V134.369L198.925 150.031L201.337 145.786L176.978 131.539V103.094Z" fill="#FFB139" fill-opacity="0.07"/>
<path d="M58.1726 172.182H53.349V203.457L80.12 219.07L82.5318 214.874L58.1726 200.627V172.182Z" fill="#FFB139" fill-opacity="0.07"/>
<path d="M137.087 172.182H132.263V203.457L159.034 219.07L161.446 214.874L137.087 200.627V172.182Z" fill="#FFB139" fill-opacity="0.07"/>
<path d="M58.1726 62.4031V33.9582H53.349V65.233L80.12 80.846L82.5318 76.65L58.1726 62.4031Z" fill="#FFB139" fill-opacity="0.07"/>
<path d="M137.087 62.4031V33.9582H132.263V65.233L159.034 80.846L161.446 76.65L137.087 62.4031Z" fill="#FFB139" fill-opacity="0.07"/>
</svg>
