<svg width="49" height="51" viewBox="0 0 49 51" fill="none" xmlns="http://www.w3.org/2000/svg">
<path d="M20.2284 11.7469H18.2126C16.204 11.7469 14.3161 12.5289 12.8965 13.9493L3.1576 23.6878C3.00095 23.8444 2.91284 24.057 2.91284 24.2785C2.91284 24.5 3.00095 24.7125 3.1576 24.8691L7.33479 29.0463C7.66113 29.3727 8.18981 29.3727 8.51615 29.0463L16.2799 21.2826V29.9854L9.64285 49.0671C9.55392 49.3225 9.5939 49.6051 9.75055 49.8258C9.90801 50.0461 10.1617 50.1771 10.4318 50.1771H17.9507C18.3065 50.1771 18.623 49.9519 18.7397 49.6162L24.6808 32.537L31.3749 49.6459C31.5005 49.9662 31.8089 50.1771 32.1532 50.1771H39.6721C39.9479 50.1771 40.2065 50.0408 40.3624 49.8128C40.5182 49.5843 40.5508 49.2943 40.4505 49.0373L32.9886 29.9691V21.2826L40.7523 29.0463C41.0787 29.3727 41.6074 29.3727 41.9337 29.0463L46.1109 24.8691C46.2675 24.7125 46.3557 24.5 46.3557 24.2785C46.3557 24.057 46.2675 23.8444 46.1109 23.6878L36.372 13.9493C34.9524 12.5289 33.0645 11.7469 31.0559 11.7469H29.0401C30.4329 10.5211 31.3178 8.73102 31.3178 6.73425C31.3178 3.04902 28.3195 0.0507431 24.6343 0.0507431C20.949 0.0507431 17.9507 3.04902 17.9507 6.73425C17.9507 8.73102 18.8356 10.5211 20.2284 11.7469ZM31.0559 13.4178C32.6182 13.4178 34.086 14.026 35.1906 15.1307L44.3389 24.2785L41.343 27.2743L32.7439 18.6752C32.5048 18.4361 32.1459 18.3655 31.8334 18.494C31.5209 18.6234 31.3178 18.9281 31.3178 19.2658V30.1265C31.3178 30.2306 31.3373 30.3338 31.3749 30.4309L38.4484 48.5062H32.7235L25.4126 29.8222C25.2869 29.5016 24.9777 29.2911 24.6343 29.2911C24.6294 29.2911 24.6236 29.2911 24.6179 29.2911C24.2687 29.298 23.9604 29.5216 23.8453 29.852L17.3568 48.5062H11.6066L17.9042 30.4011C17.9352 30.3126 17.9507 30.22 17.9507 30.1265V19.2658C17.9507 18.9281 17.7476 18.6234 17.4351 18.494C17.1226 18.3651 16.7637 18.4361 16.5246 18.6752L7.92547 27.2743L4.92964 24.2785L14.0779 15.1307C15.1825 14.026 16.6503 13.4178 18.2126 13.4178H31.0559ZM24.6343 1.72162C27.3984 1.72162 29.6469 3.97013 29.6469 6.73425C29.6469 9.49838 27.3984 11.7469 24.6343 11.7469C21.8701 11.7469 19.6216 9.49838 19.6216 6.73425C19.6216 3.97013 21.8701 1.72162 24.6343 1.72162Z" fill="white"/>
<path d="M24.0591 25.7201C24.2206 25.8731 24.427 25.9493 24.6343 25.9493C24.8415 25.9493 25.0479 25.8731 25.2094 25.7201L28.7919 22.32C29.3434 21.7974 29.6469 21.0991 29.6469 20.3538C29.6469 19.6085 29.3434 18.9101 28.7927 18.3876C27.6856 17.3384 25.8833 17.3367 24.7762 18.3876L24.7754 18.388L24.6343 18.5218L24.4923 18.3876C23.3868 17.3376 21.5838 17.3368 20.4766 18.3876C19.9251 18.9101 19.6216 19.6085 19.6216 20.3538C19.6216 21.0991 19.9251 21.7974 20.4758 22.32L24.0591 25.7201ZM21.6262 19.5999C21.8628 19.3752 22.1736 19.263 22.4845 19.263C22.7953 19.263 23.1061 19.3752 23.3427 19.5995L24.0591 20.2795C24.3821 20.5855 24.8863 20.5855 25.2094 20.2795L25.9257 19.5995C26.3989 19.1508 27.1683 19.1512 27.6431 19.5999C27.8577 19.8039 27.976 20.0715 27.976 20.3538C27.976 20.6361 27.8577 20.9037 27.6423 21.1076L24.6343 23.9623L21.6254 21.1076C21.4108 20.9037 21.2925 20.6361 21.2925 20.3538C21.2925 20.0715 21.4108 19.8039 21.6262 19.5999Z" fill="white"/>
<path d="M41.9525 8.17751C41.5437 7.75979 41.1178 7.35512 40.6879 6.97494L39.5816 8.22727C39.9814 8.58054 40.3779 8.95747 40.7597 9.34663L41.9525 8.17751Z" fill="white"/>
<path d="M42.8589 11.8252L44.2083 10.8388C43.8648 10.3697 43.5018 9.90876 43.1281 9.4682L41.8537 10.5484C42.2013 10.9588 42.5399 11.3883 42.8589 11.8252Z" fill="white"/>
<path d="M36.4267 3.95258C35.9192 3.66907 35.3962 3.40147 34.8725 3.15712L34.1659 4.67135C34.653 4.89857 35.1401 5.1474 35.6124 5.41134L36.4267 3.95258Z" fill="white"/>
<path d="M44.582 14.5775L46.0587 13.7951C45.7862 13.2815 45.4933 12.7728 45.1865 12.2833L43.7702 13.1701C44.0558 13.6258 44.3291 14.0994 44.582 14.5775Z" fill="white"/>
<path d="M47.1585 23.8999L48.8277 23.811C48.7959 23.2285 48.7445 22.6439 48.6727 22.0732L47.0149 22.2812C47.0818 22.8124 47.1299 23.357 47.1585 23.8999Z" fill="white"/>
<path d="M45.8898 17.5493L47.4644 16.988C47.2694 16.4421 47.0524 15.8963 46.8182 15.3656L45.2893 16.0403C45.5072 16.5335 45.7095 17.0414 45.8898 17.5493Z" fill="white"/>
<path d="M46.4495 35.6593L44.9467 34.9307C44.7125 35.4129 44.4563 35.8959 44.1855 36.3662L45.6328 37.2008C45.9241 36.6958 46.199 36.1774 46.4495 35.6593Z" fill="white"/>
<path d="M47.7385 32.4199L46.146 31.9165C45.982 32.4338 45.7992 32.9482 45.601 33.4446L47.1528 34.0639C47.3657 33.5291 47.5631 32.9759 47.7385 32.4199Z" fill="white"/>
<path d="M44.7068 38.6792L43.3231 37.7426C43.0229 38.1864 42.7006 38.6274 42.3645 39.0537L43.6764 40.0882C44.0378 39.6301 44.3845 39.1561 44.7068 38.6792Z" fill="white"/>
<path d="M40.1763 41.4551L41.3283 42.6659C41.7469 42.2677 42.1573 41.8484 42.5489 41.4192L41.3137 40.2934C40.9498 40.6931 40.5671 41.0839 40.1763 41.4551Z" fill="white"/>
<path d="M46.7554 20.6773L48.3937 20.3509C48.2803 19.779 48.144 19.2075 47.9906 18.6519L46.3801 19.0982C46.5229 19.6142 46.6494 20.1453 46.7554 20.6773Z" fill="white"/>
<path d="M48.5471 29.028L46.8974 28.7596C46.8109 29.2919 46.704 29.8275 46.58 30.3517L48.2052 30.7376C48.339 30.1747 48.454 29.5995 48.5471 29.028Z" fill="white"/>
<path d="M48.8579 25.5545L47.187 25.5259C47.178 26.0652 47.1487 26.6106 47.1005 27.147L48.7649 27.2963C48.8163 26.7199 48.8481 26.1341 48.8579 25.5545Z" fill="white"/>
<path d="M39.3417 5.86699C38.8848 5.51699 38.4059 5.17719 37.9189 4.85696L37.0018 6.25371C37.4555 6.5515 37.9009 6.86805 38.3268 7.19358L39.3417 5.86699Z" fill="white"/>
<path d="M2.16551 27.1197C2.1182 26.5861 2.08964 26.0399 2.08067 25.4961L0.40979 25.5247C0.4204 26.108 0.450585 26.6938 0.50117 27.2666L2.16551 27.1197Z" fill="white"/>
<path d="M2.25689 22.2531L0.599059 22.0426C0.527261 22.6129 0.474236 23.1975 0.442414 23.78L2.11003 23.8714C2.14023 23.3284 2.18917 22.7838 2.25689 22.2531Z" fill="white"/>
<path d="M2.89652 19.0696L1.28602 18.6234C1.13265 19.1773 0.996393 19.748 0.880543 20.3199L2.51879 20.6504C2.62648 20.1172 2.75293 19.5856 2.89652 19.0696Z" fill="white"/>
<path d="M15.1287 4.65952L14.4238 3.14447C13.8967 3.38923 13.3738 3.65601 12.8688 3.93749L13.6814 5.39706C14.1513 5.13558 14.6384 4.88756 15.1287 4.65952Z" fill="white"/>
<path d="M5.51379 13.1457L4.09747 12.258C3.78989 12.7496 3.49537 13.2575 3.2245 13.7682L4.69957 14.5522C4.95249 14.077 5.22661 13.6038 5.51379 13.1457Z" fill="white"/>
<path d="M3.98977 16.013L2.46085 15.3387C2.22425 15.876 2.00641 16.4214 1.81469 16.9598L3.38766 17.5211C3.56635 17.021 3.76867 16.5135 3.98977 16.013Z" fill="white"/>
<path d="M9.70812 8.2081L8.60182 6.95576C8.16452 7.34207 7.73945 7.74592 7.33642 8.1567L8.5292 9.32665C8.90451 8.94442 9.30101 8.56789 9.70812 8.2081Z" fill="white"/>
<path d="M9.0791 41.4437C8.68259 41.0652 8.30077 40.674 7.94342 40.2807L6.70658 41.4042C7.09084 41.8268 7.50041 42.2465 7.92547 42.652L9.0791 41.4437Z" fill="white"/>
<path d="M7.4327 10.5272L6.15996 9.44453C5.78384 9.88632 5.41997 10.3473 5.07813 10.8144L6.42593 11.8015C6.74411 11.3671 7.08269 10.9384 7.4327 10.5272Z" fill="white"/>
<path d="M3.65935 33.4251C3.46028 32.9229 3.27671 32.4077 3.11517 31.8937L1.52098 32.3963C1.69557 32.9482 1.8922 33.5017 2.10596 34.041L3.65935 33.4251Z" fill="white"/>
<path d="M12.2911 6.23862L11.3757 4.84024C10.8944 5.15516 10.4155 5.49455 9.95125 5.84782L10.9645 7.17685C11.3961 6.84725 11.8424 6.53151 12.2911 6.23862Z" fill="white"/>
<path d="M0.716546 28.9986C0.807927 29.5685 0.922958 30.1449 1.05757 30.7119L2.68276 30.3268C2.55794 29.799 2.45106 29.2629 2.3662 28.7335L0.716546 28.9986Z" fill="white"/>
<path d="M5.07324 36.3491C4.80564 35.884 4.55027 35.4007 4.31367 34.912L2.80923 35.6405C3.06378 36.1647 3.3379 36.6836 3.6259 37.1829L5.07324 36.3491Z" fill="white"/>
<path d="M6.89178 39.0386C6.56055 38.618 6.23828 38.177 5.93397 37.7271L4.55027 38.6629C4.87661 39.1463 5.22335 39.6207 5.57989 40.0731L6.89178 39.0386Z" fill="white"/>
<path d="M25.5048 49.3257C26.0865 49.3045 26.6723 49.2621 27.2466 49.1993L27.0639 47.5382C26.5303 47.5969 25.9853 47.6361 25.4444 47.6557L25.5048 49.3257Z" fill="white"/>
<path d="M23.758 49.3261L23.82 47.6561C23.2824 47.6365 22.7366 47.5969 22.1989 47.5382L22.0178 49.1993C22.5954 49.2621 23.1812 49.3049 23.758 49.3261Z" fill="white"/>
</svg>
